<?xml version="1.0" encoding="utf-8"?>
<!-- Generator: Adobe Illustrator 24.0.2, SVG Export Plug-In . SVG Version: 6.00 Build 0)  -->
<svg version="1.1" xmlns="http://www.w3.org/2000/svg" xmlns:xlink="http://www.w3.org/1999/xlink" x="0px" y="0px"
	 viewBox="0 0 126.03 126.03" style="enable-background:new 0 0 126.03 126.03;" xml:space="preserve">
<style type="text/css">
	.st0{fill:#C4A523;}
	.st1{fill:#222326;stroke:#000000;stroke-width:0.25;stroke-miterlimit:10;}
	.st2{fill:#222326;}
	.st3{fill:url(#SVGID_1_);}
	.st4{fill:url(#SVGID_2_);}
	.st5{fill:url(#SVGID_3_);}
	.st6{fill:url(#SVGID_4_);}
	.st7{fill:url(#SVGID_5_);}
	.st8{fill:url(#SVGID_6_);}
	.st9{fill:url(#SVGID_7_);}
	.st10{fill:url(#SVGID_8_);}
	.st11{fill:url(#SVGID_9_);}
	.st12{fill:url(#SVGID_10_);}
	.st13{fill:url(#SVGID_11_);}
	.st14{fill:url(#SVGID_12_);}
	.st15{fill:url(#SVGID_13_);}
	.st16{fill:url(#SVGID_14_);}
</style>
<g id="Artboard">
</g>
<g id="Logo">
	<g>
		<g>
			<path class="st0" d="M82.48,105.57c-0.27-0.75-0.55-1.49-0.83-2.23c-0.02-0.06-0.04-0.12-0.05-0.18l-5.65-15.46
				c-0.01,0.01-0.01,0.01-0.01,0.01c-0.52-1.42-1.04-2.85-1.56-4.27l-0.44-1.22c-1.59-4.37-3.18-8.74-4.77-13.11
				c-1.53-3.7-4.23-7.13-7.41-9.01c-1.94-1.15-4.03-2.01-6.36-2.62c0.6-0.19,1.2-0.39,1.78-0.64c3.27-1.38,5.77-3.66,7.23-6.58
				c1.3-2.6,1.73-5.63,1.23-8.78c-0.77-4.87-3.55-8.69-8.25-10.88c-3.33-1.55-7.19-2.08-11.8-2.11c-5.07-0.03-10.22-0.03-15.24-0.02
				h-6.05v62.29h5.72c5.34,0,10.68,0.01,16.02-0.01c4.09-0.01,7.41-0.35,10.41-1.08c0.06-0.01,0.11-0.03,0.17-0.04
				c2.79-0.69,4.97-1.6,6.76-2.83c0.65,1.76,1.32,3.6,2.01,5.48c1.09,2.98,2.22,6.09,3.37,9.24c0.91,2.47,1.82,4.98,2.72,7.48h12.25
				l-0.25-0.68L82.48,105.57z M50.76,86.5c-0.01,0-0.02,0.01-0.03,0.01c-0.94,0.4-1.97,0.71-3.1,0.94
				c-1.33,0.27-2.83,0.26-4.72,0.32c-1.86,0.06-3.76,0.01-5.6,0c-0.6-0.01-1.21,0-1.82,0V70.49h-0.05V31.41c0,0,11.19,0,11.19,0
				c6.4,0,8.91,7.38,8.91,12.68c0,4.74-1.73,9.11-4.38,11.74c-0.83,0.83-1.76,1.48-2.74,1.92c-0.81,0.36-1.68,0.58-2.56,0.62v0.59
				c0.43-0.06,0.88-0.1,1.33-0.1c6.35,0,11.5,6.34,11.5,14.17C58.69,79.31,55.37,84.65,50.76,86.5z"/>
			<path class="st0" d="M97.65,48.95c-1.68,0-3.36-0.01-5.04-0.01l-2.93-0.01c-0.32,0.91-0.66,1.87-1.01,2.87
				c-0.52,1.49-1.08,3.05-1.65,4.67c-0.33,0.93-0.67,1.89-1.01,2.85c-2.75,7.76-5.76,16.27-8.09,22.84
				c0.01,0.02,0.01,0.04,0.02,0.06l0.44,1.22c0.52,1.42,1.04,2.85,1.56,4.27c0-0.01,0-0.01,0.01-0.01l4.12,11.27
				c4.27-12.08,17.66-50,17.66-50C100.75,48.96,98.63,48.96,97.65,48.95z"/>
		</g>
		<g>
			<path class="st2" d="M63.02,126.03C28.27,126.03,0,97.76,0,63.02S28.27,0,63.02,0s63.02,28.27,63.02,63.02
				S97.76,126.03,63.02,126.03z M63.02,2.73c-33.24,0-60.29,27.04-60.29,60.29s27.04,60.29,60.29,60.29s60.29-27.04,60.29-60.29
				S96.26,2.73,63.02,2.73z"/>
		</g>
	</g>
</g>
</svg>
